<mxfile host="app.diagrams.net" modified="2023-04-06T23:16:50.052Z" agent="Mozilla/5.0 (Windows NT 10.0; Win64; x64) AppleWebKit/537.36 (KHTML, like Gecko) Chrome/112.0.0.0 Safari/537.36" etag="e7Xoh1a8G0_jjJEjplLO" version="21.1.4" type="device">
  <diagram name="Page-1" id="-ort9zezH56AqXohCiST">
    <mxGraphModel dx="3900" dy="2120" grid="1" gridSize="10" guides="1" tooltips="1" connect="1" arrows="1" fold="1" page="1" pageScale="1" pageWidth="850" pageHeight="1100" math="0" shadow="0">
      <root>
        <mxCell id="0" />
        <mxCell id="1" parent="0" />
        <mxCell id="I-UWyfNXT5M1vxQCj9cj-3" value="ADMIN" style="rounded=0;whiteSpace=wrap;html=1;fontStyle=1" vertex="1" parent="1">
          <mxGeometry x="180" y="230" width="120" height="60" as="geometry" />
        </mxCell>
        <mxCell id="I-UWyfNXT5M1vxQCj9cj-4" value="Sign up or&lt;br&gt;Log in&amp;nbsp;" style="ellipse;whiteSpace=wrap;html=1;aspect=fixed;" vertex="1" parent="1">
          <mxGeometry x="410" y="60" width="110" height="110" as="geometry" />
        </mxCell>
        <mxCell id="I-UWyfNXT5M1vxQCj9cj-6" value="Homepage Of&lt;br&gt;&amp;nbsp;Eaz Casting Website" style="ellipse;whiteSpace=wrap;html=1;aspect=fixed;" vertex="1" parent="1">
          <mxGeometry x="410" y="270" width="110" height="110" as="geometry" />
        </mxCell>
        <mxCell id="I-UWyfNXT5M1vxQCj9cj-7" value="Log in to Your&lt;br&gt;WhatsApp&amp;nbsp;&lt;br&gt;Web" style="ellipse;whiteSpace=wrap;html=1;aspect=fixed;" vertex="1" parent="1">
          <mxGeometry x="410" y="495" width="110" height="110" as="geometry" />
        </mxCell>
        <mxCell id="I-UWyfNXT5M1vxQCj9cj-8" value="Add Extension&amp;nbsp;&lt;br&gt;To your Chrome&lt;br&gt;Page&amp;nbsp;" style="ellipse;whiteSpace=wrap;html=1;aspect=fixed;" vertex="1" parent="1">
          <mxGeometry x="410" y="720" width="110" height="110" as="geometry" />
        </mxCell>
        <mxCell id="I-UWyfNXT5M1vxQCj9cj-9" value="Eaz Casting Extension Allows&amp;nbsp;&lt;br&gt;Now To Mass&amp;nbsp;&lt;br&gt;Messaging&amp;nbsp;" style="ellipse;whiteSpace=wrap;html=1;aspect=fixed;" vertex="1" parent="1">
          <mxGeometry x="410" y="950" width="110" height="110" as="geometry" />
        </mxCell>
        <mxCell id="I-UWyfNXT5M1vxQCj9cj-12" value="Login" style="shape=partialRectangle;whiteSpace=wrap;html=1;left=0;right=0;fillColor=none;" vertex="1" parent="1">
          <mxGeometry x="650" y="90" width="130" height="50" as="geometry" />
        </mxCell>
        <mxCell id="I-UWyfNXT5M1vxQCj9cj-13" value="" style="endArrow=classic;html=1;rounded=0;entryX=0;entryY=0.5;entryDx=0;entryDy=0;exitX=1;exitY=0.5;exitDx=0;exitDy=0;" edge="1" parent="1" source="I-UWyfNXT5M1vxQCj9cj-4" target="I-UWyfNXT5M1vxQCj9cj-12">
          <mxGeometry width="50" height="50" relative="1" as="geometry">
            <mxPoint x="490" y="220" as="sourcePoint" />
            <mxPoint x="540" y="170" as="targetPoint" />
          </mxGeometry>
        </mxCell>
        <mxCell id="I-UWyfNXT5M1vxQCj9cj-14" value="Store and Retrieve&amp;nbsp;" style="text;html=1;strokeColor=none;fillColor=none;align=center;verticalAlign=middle;whiteSpace=wrap;rounded=0;" vertex="1" parent="1">
          <mxGeometry x="540" y="80" width="70" height="30" as="geometry" />
        </mxCell>
        <mxCell id="I-UWyfNXT5M1vxQCj9cj-15" value="" style="endArrow=classic;html=1;rounded=0;entryX=-0.05;entryY=0.536;entryDx=0;entryDy=0;entryPerimeter=0;" edge="1" parent="1" target="I-UWyfNXT5M1vxQCj9cj-4">
          <mxGeometry width="50" height="50" relative="1" as="geometry">
            <mxPoint x="220" y="230" as="sourcePoint" />
            <mxPoint x="390" y="100" as="targetPoint" />
          </mxGeometry>
        </mxCell>
        <mxCell id="I-UWyfNXT5M1vxQCj9cj-16" value="" style="endArrow=classic;html=1;rounded=0;entryX=0.764;entryY=-0.073;entryDx=0;entryDy=0;entryPerimeter=0;" edge="1" parent="1" target="I-UWyfNXT5M1vxQCj9cj-3">
          <mxGeometry width="50" height="50" relative="1" as="geometry">
            <mxPoint x="410" y="140" as="sourcePoint" />
            <mxPoint x="270" y="220" as="targetPoint" />
          </mxGeometry>
        </mxCell>
        <mxCell id="I-UWyfNXT5M1vxQCj9cj-17" value="Login&amp;nbsp;" style="text;html=1;strokeColor=none;fillColor=none;align=center;verticalAlign=middle;whiteSpace=wrap;rounded=0;rotation=-30;" vertex="1" parent="1">
          <mxGeometry x="330" y="180" width="60" height="30" as="geometry" />
        </mxCell>
        <mxCell id="I-UWyfNXT5M1vxQCj9cj-18" value="Confirmation" style="text;html=1;strokeColor=none;fillColor=none;align=center;verticalAlign=middle;whiteSpace=wrap;rounded=0;rotation=-30;" vertex="1" parent="1">
          <mxGeometry x="270" y="140" width="60" height="30" as="geometry" />
        </mxCell>
        <mxCell id="I-UWyfNXT5M1vxQCj9cj-19" value="USER" style="rounded=0;whiteSpace=wrap;html=1;fontStyle=1" vertex="1" parent="1">
          <mxGeometry x="50" y="510" width="170" height="80" as="geometry" />
        </mxCell>
        <mxCell id="I-UWyfNXT5M1vxQCj9cj-20" value="" style="endArrow=classic;html=1;rounded=0;entryX=0;entryY=0;entryDx=0;entryDy=0;" edge="1" parent="1" target="I-UWyfNXT5M1vxQCj9cj-4">
          <mxGeometry width="50" height="50" relative="1" as="geometry">
            <mxPoint x="80" y="510" as="sourcePoint" />
            <mxPoint x="70" y="30" as="targetPoint" />
            <Array as="points">
              <mxPoint x="80" y="80" />
            </Array>
          </mxGeometry>
        </mxCell>
        <mxCell id="I-UWyfNXT5M1vxQCj9cj-21" value="" style="endArrow=classic;html=1;rounded=0;exitX=-0.015;exitY=0.407;exitDx=0;exitDy=0;exitPerimeter=0;" edge="1" parent="1" source="I-UWyfNXT5M1vxQCj9cj-4">
          <mxGeometry width="50" height="50" relative="1" as="geometry">
            <mxPoint x="410" y="90" as="sourcePoint" />
            <mxPoint x="120" y="510" as="targetPoint" />
            <Array as="points">
              <mxPoint x="120" y="110" />
            </Array>
          </mxGeometry>
        </mxCell>
        <mxCell id="I-UWyfNXT5M1vxQCj9cj-23" value="Login" style="text;html=1;strokeColor=none;fillColor=none;align=center;verticalAlign=middle;whiteSpace=wrap;rounded=0;rotation=-90;" vertex="1" parent="1">
          <mxGeometry x="100" y="400" width="90" height="30" as="geometry" />
        </mxCell>
        <mxCell id="I-UWyfNXT5M1vxQCj9cj-25" value="Confirmation" style="text;html=1;strokeColor=none;fillColor=none;align=center;verticalAlign=middle;whiteSpace=wrap;rounded=0;rotation=-90;" vertex="1" parent="1">
          <mxGeometry x="30" y="400" width="60" height="30" as="geometry" />
        </mxCell>
        <mxCell id="I-UWyfNXT5M1vxQCj9cj-27" value="" style="endArrow=classic;html=1;rounded=0;exitX=0.883;exitY=0.008;exitDx=0;exitDy=0;exitPerimeter=0;" edge="1" parent="1" source="I-UWyfNXT5M1vxQCj9cj-19">
          <mxGeometry width="50" height="50" relative="1" as="geometry">
            <mxPoint x="190" y="540" as="sourcePoint" />
            <mxPoint x="410" y="330" as="targetPoint" />
          </mxGeometry>
        </mxCell>
        <mxCell id="I-UWyfNXT5M1vxQCj9cj-28" value="Access to Website" style="text;html=1;strokeColor=none;fillColor=none;align=center;verticalAlign=middle;whiteSpace=wrap;rounded=0;rotation=-45;" vertex="1" parent="1">
          <mxGeometry x="260" y="390" width="60" height="30" as="geometry" />
        </mxCell>
        <mxCell id="I-UWyfNXT5M1vxQCj9cj-30" value="" style="endArrow=classic;html=1;rounded=0;exitX=0.061;exitY=0.795;exitDx=0;exitDy=0;exitPerimeter=0;entryX=1;entryY=0.25;entryDx=0;entryDy=0;" edge="1" parent="1" source="I-UWyfNXT5M1vxQCj9cj-6" target="I-UWyfNXT5M1vxQCj9cj-19">
          <mxGeometry width="50" height="50" relative="1" as="geometry">
            <mxPoint x="390" y="370" as="sourcePoint" />
            <mxPoint x="440" y="320" as="targetPoint" />
          </mxGeometry>
        </mxCell>
        <mxCell id="I-UWyfNXT5M1vxQCj9cj-31" value="Guide To Extension Of Eaz Casting" style="text;html=1;strokeColor=none;fillColor=none;align=center;verticalAlign=middle;whiteSpace=wrap;rounded=0;rotation=-40;" vertex="1" parent="1">
          <mxGeometry x="295" y="430" width="130" height="30" as="geometry" />
        </mxCell>
        <mxCell id="I-UWyfNXT5M1vxQCj9cj-35" value="" style="endArrow=classic;html=1;rounded=0;exitX=1;exitY=0.5;exitDx=0;exitDy=0;entryX=0;entryY=0.5;entryDx=0;entryDy=0;" edge="1" parent="1" source="I-UWyfNXT5M1vxQCj9cj-19" target="I-UWyfNXT5M1vxQCj9cj-7">
          <mxGeometry width="50" height="50" relative="1" as="geometry">
            <mxPoint x="410" y="490" as="sourcePoint" />
            <mxPoint x="460" y="440" as="targetPoint" />
          </mxGeometry>
        </mxCell>
        <mxCell id="I-UWyfNXT5M1vxQCj9cj-36" value="" style="endArrow=classic;html=1;rounded=0;" edge="1" parent="1">
          <mxGeometry width="50" height="50" relative="1" as="geometry">
            <mxPoint x="420" y="580" as="sourcePoint" />
            <mxPoint x="220" y="580" as="targetPoint" />
          </mxGeometry>
        </mxCell>
        <mxCell id="I-UWyfNXT5M1vxQCj9cj-37" value="Scan The QR to Login" style="text;html=1;strokeColor=none;fillColor=none;align=center;verticalAlign=middle;whiteSpace=wrap;rounded=0;" vertex="1" parent="1">
          <mxGeometry x="290" y="520" width="80" height="30" as="geometry" />
        </mxCell>
        <mxCell id="I-UWyfNXT5M1vxQCj9cj-38" value="Loads All Data In PC Of that on Your Phone" style="text;html=1;strokeColor=none;fillColor=none;align=center;verticalAlign=middle;whiteSpace=wrap;rounded=0;" vertex="1" parent="1">
          <mxGeometry x="262.5" y="590" width="135" height="30" as="geometry" />
        </mxCell>
        <mxCell id="I-UWyfNXT5M1vxQCj9cj-39" value="" style="endArrow=classic;html=1;rounded=0;exitX=0.855;exitY=1.004;exitDx=0;exitDy=0;exitPerimeter=0;" edge="1" parent="1" source="I-UWyfNXT5M1vxQCj9cj-19">
          <mxGeometry width="50" height="50" relative="1" as="geometry">
            <mxPoint x="320" y="730" as="sourcePoint" />
            <mxPoint x="410" y="750" as="targetPoint" />
          </mxGeometry>
        </mxCell>
        <mxCell id="I-UWyfNXT5M1vxQCj9cj-40" value="" style="endArrow=classic;html=1;rounded=0;exitX=-0.011;exitY=0.588;exitDx=0;exitDy=0;exitPerimeter=0;entryX=0.586;entryY=0.988;entryDx=0;entryDy=0;entryPerimeter=0;" edge="1" parent="1" source="I-UWyfNXT5M1vxQCj9cj-8" target="I-UWyfNXT5M1vxQCj9cj-19">
          <mxGeometry width="50" height="50" relative="1" as="geometry">
            <mxPoint x="320" y="730" as="sourcePoint" />
            <mxPoint x="370" y="680" as="targetPoint" />
          </mxGeometry>
        </mxCell>
        <mxCell id="I-UWyfNXT5M1vxQCj9cj-41" value="Added On Top Right Corner As Extension" style="text;html=1;strokeColor=none;fillColor=none;align=center;verticalAlign=middle;whiteSpace=wrap;rounded=0;rotation=40;" vertex="1" parent="1">
          <mxGeometry x="184.09" y="678.75" width="120" height="30" as="geometry" />
        </mxCell>
        <mxCell id="I-UWyfNXT5M1vxQCj9cj-44" value="Add As Extension" style="text;html=1;strokeColor=none;fillColor=none;align=center;verticalAlign=middle;whiteSpace=wrap;rounded=0;rotation=40;" vertex="1" parent="1">
          <mxGeometry x="300" y="648.75" width="60" height="30" as="geometry" />
        </mxCell>
        <mxCell id="I-UWyfNXT5M1vxQCj9cj-45" value="" style="endArrow=classic;html=1;rounded=0;exitX=0.331;exitY=0.971;exitDx=0;exitDy=0;exitPerimeter=0;" edge="1" parent="1" source="I-UWyfNXT5M1vxQCj9cj-19" target="I-UWyfNXT5M1vxQCj9cj-9">
          <mxGeometry width="50" height="50" relative="1" as="geometry">
            <mxPoint x="290" y="830" as="sourcePoint" />
            <mxPoint x="340" y="780" as="targetPoint" />
          </mxGeometry>
        </mxCell>
        <mxCell id="I-UWyfNXT5M1vxQCj9cj-46" value="" style="endArrow=classic;html=1;rounded=0;exitX=-0.037;exitY=0.3;exitDx=0;exitDy=0;exitPerimeter=0;entryX=0.048;entryY=0.943;entryDx=0;entryDy=0;entryPerimeter=0;" edge="1" parent="1" source="I-UWyfNXT5M1vxQCj9cj-9" target="I-UWyfNXT5M1vxQCj9cj-19">
          <mxGeometry width="50" height="50" relative="1" as="geometry">
            <mxPoint x="74.5" y="640" as="sourcePoint" />
            <mxPoint x="397.5" y="1015" as="targetPoint" />
          </mxGeometry>
        </mxCell>
        <mxCell id="I-UWyfNXT5M1vxQCj9cj-47" value="Upload the Numbers And Type Message&amp;nbsp;" style="text;html=1;strokeColor=none;fillColor=none;align=center;verticalAlign=middle;whiteSpace=wrap;rounded=0;rotation=50;" vertex="1" parent="1">
          <mxGeometry x="305" y="840" width="120" height="30" as="geometry" />
        </mxCell>
        <mxCell id="I-UWyfNXT5M1vxQCj9cj-48" value="Messages Sent Report Sent" style="text;html=1;strokeColor=none;fillColor=none;align=center;verticalAlign=middle;whiteSpace=wrap;rounded=0;rotation=45;" vertex="1" parent="1">
          <mxGeometry x="237.5" y="890" width="105" height="30" as="geometry" />
        </mxCell>
      </root>
    </mxGraphModel>
  </diagram>
</mxfile>
